<?xml version="1.0" encoding="utf-8"?>
<!-- Generator: Adobe Illustrator 27.5.0, SVG Export Plug-In . SVG Version: 6.00 Build 0)  -->
<svg version="1.1" xmlns="http://www.w3.org/2000/svg" xmlns:xlink="http://www.w3.org/1999/xlink" x="0px" y="0px"
	 viewBox="0 0 800 800" style="enable-background:new 0 0 800 800;" xml:space="preserve">
<g id="background">
	<rect style="fill:transparent;" fill-opacity="0" width="800" height="800"/>
	<g id="logo">
		<g>
			<path style="fill:#64347C;" d="M316.463,769.721c-0.266,0-0.47,0.094-0.613,0.277c-0.143,0.184-0.214,0.457-0.214,0.817v2.588
				c-0.33-0.36-0.667-0.626-1.016-0.798c-0.347-0.176-0.773-0.262-1.277-0.262c-0.875,0-1.579,0.305-2.114,0.918
				c-0.535,0.613-0.803,1.468-0.803,2.561c0,0.522,0.066,1,0.203,1.447c0.134,0.446,0.332,0.834,0.594,1.164
				c0.261,0.328,0.569,0.582,0.928,0.761c0.358,0.177,0.746,0.267,1.166,0.267c0.317,0,0.609-0.045,0.876-0.133
				c0.27-0.088,0.517-0.215,0.746-0.383c0.229-0.172,0.461-0.391,0.697-0.66v0.172c0,0.321,0.077,0.57,0.234,0.742
				c0.155,0.176,0.354,0.262,0.593,0.262c0.245,0,0.443-0.086,0.599-0.252c0.154-0.166,0.232-0.418,0.232-0.752v-7.732
				c0-0.33-0.071-0.58-0.216-0.748C316.935,769.807,316.728,769.721,316.463,769.721z M315.311,777.125
				c-0.153,0.332-0.356,0.578-0.611,0.74c-0.255,0.16-0.536,0.24-0.845,0.24c-0.305,0-0.585-0.084-0.841-0.256
				c-0.257-0.168-0.46-0.42-0.607-0.754c-0.148-0.334-0.222-0.738-0.222-1.213c0-0.451,0.069-0.847,0.209-1.185
				c0.139-0.34,0.337-0.602,0.588-0.783c0.253-0.182,0.539-0.273,0.86-0.273c0.308,0,0.592,0.089,0.851,0.266
				c0.26,0.178,0.465,0.435,0.618,0.771c0.15,0.338,0.227,0.736,0.227,1.205C315.538,776.379,315.462,776.795,315.311,777.125z"/>
			<path style="fill:#64347C;" d="M325.014,776.132c0.251-0.133,0.379-0.419,0.379-0.858c0-0.477-0.123-0.945-0.366-1.402
				c-0.245-0.457-0.611-0.831-1.104-1.121c-0.488-0.289-1.076-0.434-1.762-0.434c-0.525,0-1.007,0.086-1.439,0.254
				c-0.433,0.17-0.796,0.414-1.092,0.729c-0.295,0.318-0.52,0.699-0.674,1.143c-0.154,0.441-0.232,0.924-0.232,1.441
				c0,1.102,0.314,1.972,0.939,2.613c0.625,0.643,1.499,0.965,2.627,0.965c0.492,0,0.928-0.064,1.307-0.193
				c0.378-0.129,0.694-0.291,0.943-0.486c0.251-0.193,0.438-0.398,0.562-0.607c0.124-0.215,0.187-0.398,0.187-0.557
				c0-0.18-0.056-0.32-0.167-0.42c-0.111-0.096-0.257-0.147-0.437-0.147c-0.167,0-0.296,0.039-0.386,0.117
				c-0.219,0.207-0.397,0.367-0.532,0.486c-0.139,0.121-0.287,0.231-0.45,0.338c-0.164,0.104-0.331,0.184-0.505,0.232
				c-0.173,0.049-0.364,0.072-0.574,0.072c-0.313,0-0.599-0.076-0.856-0.231c-0.26-0.154-0.468-0.384-0.624-0.687
				c-0.156-0.303-0.237-0.654-0.24-1.055h3.43C324.404,776.324,324.76,776.26,325.014,776.132z M320.518,775.33
				c0.059-0.592,0.23-1.037,0.51-1.338c0.28-0.303,0.641-0.455,1.075-0.455c0.459,0,0.828,0.149,1.108,0.447
				c0.281,0.297,0.442,0.748,0.485,1.346H320.518z"/>
			<path style="fill:#64347C;" d="M331.466,775.656c-0.346-0.183-0.789-0.34-1.334-0.475c-0.458-0.109-0.817-0.205-1.078-0.281
				c-0.262-0.078-0.469-0.176-0.623-0.293c-0.154-0.117-0.233-0.27-0.233-0.453c0-0.201,0.107-0.369,0.316-0.502
				c0.21-0.137,0.473-0.205,0.79-0.205c0.309,0,0.552,0.052,0.732,0.154c0.181,0.103,0.336,0.24,0.469,0.412
				c0.162,0.205,0.307,0.357,0.434,0.463c0.127,0.102,0.279,0.154,0.46,0.154c0.247,0,0.44-0.065,0.574-0.193
				c0.136-0.129,0.202-0.295,0.202-0.496c0-0.184-0.064-0.369-0.189-0.563c-0.126-0.195-0.31-0.369-0.553-0.527
				c-0.241-0.157-0.543-0.285-0.905-0.381c-0.362-0.092-0.77-0.141-1.224-0.141c-0.577,0-1.071,0.092-1.48,0.279
				c-0.408,0.188-0.721,0.436-0.929,0.748c-0.209,0.313-0.313,0.646-0.313,0.996c0,0.394,0.113,0.727,0.341,0.996
				c0.227,0.269,0.529,0.486,0.908,0.652c0.379,0.164,0.869,0.32,1.474,0.472c0.535,0.128,0.919,0.263,1.153,0.405
				c0.232,0.141,0.351,0.365,0.351,0.674c0,0.2-0.113,0.379-0.338,0.535c-0.225,0.156-0.513,0.234-0.863,0.234
				c-0.433,0-0.775-0.076-1.025-0.231c-0.25-0.153-0.465-0.389-0.646-0.701c-0.089-0.161-0.184-0.287-0.282-0.379
				c-0.1-0.088-0.239-0.133-0.425-0.133c-0.21,0-0.382,0.068-0.52,0.205c-0.137,0.137-0.205,0.301-0.205,0.494
				c0,0.291,0.108,0.584,0.321,0.869c0.214,0.289,0.545,0.531,0.995,0.725c0.449,0.191,0.989,0.289,1.62,0.289
				c0.658,0,1.22-0.09,1.68-0.267c0.459-0.179,0.808-0.438,1.043-0.786c0.235-0.343,0.353-0.758,0.353-1.24
				c0-0.322-0.089-0.608-0.266-0.859C332.07,776.059,331.81,775.842,331.466,775.656z"/>
			<path style="fill:#64347C;" d="M334.866,772.33c-0.256,0-0.467,0.088-0.626,0.264c-0.161,0.174-0.24,0.435-0.24,0.785v5.016
				c0,0.342,0.079,0.605,0.24,0.789c0.159,0.184,0.37,0.277,0.626,0.277c0.257,0,0.469-0.09,0.636-0.27
				c0.167-0.181,0.25-0.444,0.25-0.796v-5.07c0-0.311-0.083-0.557-0.25-0.73C335.335,772.418,335.123,772.33,334.866,772.33z"/>
			<path style="fill:#64347C;" d="M334.886,769.801c-0.236,0-0.443,0.078-0.619,0.239c-0.18,0.161-0.267,0.366-0.267,0.614
				c0,0.273,0.086,0.486,0.261,0.635c0.171,0.15,0.38,0.225,0.625,0.225c0.235,0,0.439-0.075,0.611-0.227
				c0.17-0.152,0.255-0.365,0.255-0.633c0-0.279-0.088-0.492-0.262-0.637C335.313,769.873,335.111,769.801,334.886,769.801z"/>
			<path style="fill:#64347C;" d="M343.171,772.33c-0.235,0-0.428,0.082-0.577,0.252c-0.149,0.168-0.224,0.402-0.224,0.707v0.234
				c-0.314-0.406-0.652-0.704-1.017-0.894c-0.363-0.19-0.794-0.285-1.29-0.285c-0.416,0-0.798,0.074-1.145,0.222
				c-0.347,0.145-0.652,0.364-0.918,0.657c-0.267,0.291-0.47,0.648-0.613,1.074c-0.144,0.424-0.216,0.898-0.216,1.424
				c0,0.707,0.118,1.33,0.354,1.871c0.234,0.539,0.571,0.959,1.012,1.258c0.439,0.301,0.951,0.449,1.537,0.449
				c0.489,0,0.908-0.1,1.262-0.295c0.354-0.197,0.666-0.484,0.936-0.861c-0.01,0.576-0.023,0.992-0.039,1.25
				c-0.019,0.26-0.077,0.502-0.176,0.729c-0.103,0.227-0.278,0.404-0.528,0.531c-0.25,0.127-0.604,0.189-1.057,0.189
				c-0.223,0-0.42-0.022-0.591-0.062c-0.171-0.041-0.319-0.102-0.439-0.184c-0.123-0.086-0.234-0.188-0.335-0.305
				s-0.197-0.234-0.292-0.35c-0.192-0.227-0.417-0.34-0.674-0.34c-0.207,0-0.382,0.068-0.527,0.203
				c-0.146,0.134-0.218,0.309-0.218,0.523c0,0.283,0.129,0.557,0.385,0.826c0.257,0.266,0.623,0.482,1.099,0.654
				c0.475,0.168,1.016,0.253,1.62,0.253c0.658,0,1.209-0.067,1.652-0.2c0.443-0.131,0.803-0.336,1.076-0.608
				c0.273-0.274,0.474-0.621,0.597-1.042c0.125-0.42,0.188-0.92,0.188-1.504v-5.092c0-0.418-0.058-0.732-0.167-0.953
				C343.733,772.441,343.509,772.33,343.171,772.33z M342.06,777.055c-0.162,0.314-0.374,0.551-0.634,0.707
				c-0.258,0.154-0.533,0.234-0.824,0.234c-0.493,0-0.894-0.183-1.205-0.547c-0.311-0.361-0.467-0.9-0.467-1.611
				c0-0.703,0.151-1.244,0.454-1.625c0.302-0.383,0.704-0.572,1.204-0.572c0.515,0,0.93,0.199,1.244,0.598
				c0.313,0.398,0.471,0.955,0.471,1.668C342.304,776.357,342.224,776.74,342.06,777.055z"/>
			<path style="fill:#64347C;" d="M351.708,773.486c-0.18-0.369-0.452-0.654-0.814-0.855c-0.366-0.202-0.778-0.302-1.241-0.302
				c-0.475,0-0.896,0.096-1.261,0.287c-0.368,0.189-0.704,0.488-1.012,0.895v-0.213c0-0.209-0.038-0.387-0.114-0.531
				c-0.073-0.146-0.175-0.256-0.299-0.326c-0.123-0.076-0.263-0.111-0.416-0.111c-0.254,0-0.453,0.082-0.599,0.248
				c-0.146,0.164-0.217,0.412-0.217,0.746v5.07c0,0.342,0.08,0.605,0.242,0.789c0.164,0.184,0.372,0.277,0.624,0.277
				c0.261,0,0.474-0.09,0.64-0.267c0.164-0.179,0.247-0.444,0.247-0.8v-2.197c0-0.713,0.043-1.203,0.127-1.465
				c0.12-0.326,0.31-0.584,0.565-0.768c0.258-0.185,0.543-0.278,0.855-0.278c0.48,0,0.8,0.153,0.96,0.456
				c0.161,0.309,0.24,0.752,0.24,1.327v2.925c0,0.342,0.083,0.605,0.245,0.789c0.162,0.184,0.375,0.277,0.636,0.277
				c0.257,0,0.466-0.09,0.627-0.27c0.159-0.181,0.239-0.444,0.239-0.796v-3.264c0-0.385-0.016-0.703-0.051-0.951
				C351.899,773.932,351.823,773.699,351.708,773.486z"/>
			<path style="fill:#64347C;" d="M359.693,776.132c0.251-0.133,0.378-0.419,0.378-0.858c0-0.477-0.121-0.945-0.366-1.402
				c-0.245-0.457-0.611-0.831-1.103-1.121c-0.49-0.289-1.077-0.434-1.762-0.434c-0.528,0-1.007,0.086-1.439,0.254
				c-0.433,0.17-0.796,0.414-1.092,0.729c-0.296,0.318-0.522,0.699-0.676,1.143c-0.152,0.441-0.232,0.924-0.232,1.441
				c0,1.102,0.314,1.972,0.939,2.613c0.627,0.643,1.501,0.965,2.628,0.965c0.491,0,0.929-0.064,1.307-0.193
				c0.38-0.129,0.694-0.291,0.944-0.486c0.251-0.193,0.439-0.398,0.564-0.607c0.124-0.215,0.186-0.398,0.186-0.557
				c0-0.18-0.057-0.32-0.169-0.42c-0.111-0.096-0.254-0.147-0.436-0.147c-0.166,0-0.296,0.039-0.386,0.117
				c-0.218,0.207-0.395,0.367-0.533,0.486c-0.136,0.121-0.286,0.231-0.448,0.338c-0.164,0.104-0.332,0.184-0.504,0.232
				c-0.175,0.049-0.366,0.072-0.576,0.072c-0.313,0-0.598-0.076-0.857-0.231c-0.259-0.154-0.467-0.384-0.622-0.687
				c-0.157-0.303-0.237-0.654-0.241-1.055h3.429C359.085,776.324,359.439,776.26,359.693,776.132z M355.196,775.33
				c0.059-0.592,0.23-1.037,0.51-1.338c0.279-0.303,0.64-0.455,1.076-0.455c0.458,0,0.828,0.149,1.107,0.447
				c0.281,0.297,0.443,0.748,0.487,1.346H355.196z"/>
			<path style="fill:#64347C;" d="M367.183,769.721c-0.268,0-0.471,0.094-0.614,0.277c-0.144,0.184-0.216,0.457-0.216,0.817v2.588
				c-0.329-0.36-0.667-0.626-1.015-0.798c-0.347-0.176-0.772-0.262-1.276-0.262c-0.875,0-1.58,0.305-2.115,0.918
				c-0.534,0.613-0.803,1.468-0.803,2.561c0,0.522,0.068,1,0.202,1.447c0.135,0.446,0.334,0.834,0.594,1.164
				c0.262,0.328,0.571,0.582,0.929,0.761c0.358,0.177,0.746,0.267,1.165,0.267c0.318,0,0.608-0.045,0.878-0.133
				c0.267-0.088,0.516-0.215,0.744-0.383c0.23-0.172,0.462-0.391,0.697-0.66v0.172c0,0.321,0.078,0.57,0.234,0.742
				c0.157,0.176,0.354,0.262,0.596,0.262c0.242,0,0.441-0.086,0.596-0.252c0.155-0.166,0.232-0.418,0.232-0.752v-7.732
				c0-0.33-0.071-0.58-0.215-0.748C367.65,769.807,367.447,769.721,367.183,769.721z M366.028,777.125
				c-0.151,0.332-0.356,0.578-0.608,0.74c-0.256,0.16-0.537,0.24-0.847,0.24c-0.304,0-0.584-0.084-0.841-0.256
				c-0.257-0.168-0.46-0.42-0.607-0.754c-0.147-0.334-0.221-0.738-0.221-1.213c0-0.451,0.069-0.847,0.208-1.185
				c0.139-0.34,0.335-0.602,0.587-0.783c0.254-0.182,0.541-0.273,0.861-0.273c0.309,0,0.593,0.089,0.852,0.266
				c0.26,0.178,0.465,0.435,0.616,0.771c0.152,0.338,0.23,0.736,0.23,1.205C366.259,776.379,366.181,776.795,366.028,777.125z"/>
			<path style="fill:#64347C;" d="M378.49,772.758c-0.44-0.276-0.951-0.414-1.532-0.414c-0.506,0-0.93,0.09-1.273,0.273
				c-0.343,0.18-0.679,0.441-1.008,0.786v-2.679c0-0.32-0.072-0.568-0.219-0.742c-0.147-0.174-0.354-0.262-0.623-0.262
				c-0.257,0-0.456,0.093-0.6,0.275c-0.145,0.182-0.216,0.451-0.216,0.807v7.654c0,0.332,0.074,0.579,0.221,0.75
				c0.148,0.168,0.348,0.254,0.595,0.254c0.245,0,0.446-0.086,0.605-0.254c0.159-0.171,0.237-0.418,0.237-0.75v-0.172
				c0.193,0.223,0.347,0.389,0.465,0.502c0.118,0.11,0.261,0.217,0.428,0.322c0.167,0.106,0.369,0.189,0.607,0.254
				c0.237,0.064,0.492,0.098,0.761,0.098c0.44,0,0.845-0.09,1.211-0.267c0.366-0.179,0.678-0.431,0.935-0.755
				c0.257-0.324,0.453-0.71,0.588-1.152c0.136-0.443,0.202-0.93,0.202-1.465c0-0.717-0.12-1.34-0.363-1.865
				C379.269,773.434,378.929,773.031,378.49,772.758z M377.636,777.529c-0.319,0.385-0.7,0.576-1.141,0.576
				c-0.518,0-0.936-0.19-1.256-0.563c-0.318-0.375-0.479-0.911-0.479-1.609c0-0.475,0.074-0.885,0.226-1.229
				c0.148-0.346,0.355-0.609,0.616-0.791c0.262-0.182,0.559-0.273,0.893-0.273c0.326,0,0.61,0.092,0.854,0.273
				c0.244,0.182,0.434,0.439,0.566,0.775c0.133,0.334,0.199,0.73,0.199,1.193C378.114,776.598,377.955,777.148,377.636,777.529z"/>
			<path style="fill:#64347C;" d="M386.583,772.438c-0.122-0.072-0.25-0.107-0.382-0.107c-0.185,0-0.327,0.033-0.428,0.098
				c-0.1,0.063-0.196,0.188-0.286,0.371c-0.089,0.186-0.19,0.438-0.302,0.766l-1.406,4.014l-1.483-4.316
				c-0.1-0.301-0.213-0.529-0.34-0.691c-0.129-0.159-0.32-0.24-0.572-0.24c-0.146,0-0.287,0.039-0.422,0.115
				c-0.135,0.078-0.24,0.18-0.316,0.308c-0.078,0.13-0.117,0.27-0.117,0.419c0,0.143,0.066,0.367,0.199,0.682l2.158,5.434
				l-0.159,0.391c-0.121,0.287-0.228,0.504-0.319,0.65c-0.091,0.15-0.195,0.254-0.311,0.314c-0.115,0.059-0.273,0.09-0.475,0.09
				c-0.082,0-0.178-0.012-0.289-0.039c-0.091-0.025-0.183-0.039-0.276-0.039c-0.24,0-0.42,0.055-0.543,0.165
				c-0.122,0.108-0.183,0.263-0.183,0.464c0,0.297,0.129,0.5,0.386,0.611c0.257,0.113,0.643,0.167,1.156,0.167
				c0.525,0,0.944-0.08,1.255-0.241c0.311-0.16,0.559-0.391,0.748-0.691c0.189-0.299,0.381-0.711,0.579-1.238l2.286-5.986
				c0.056-0.154,0.104-0.305,0.142-0.457c0.037-0.15,0.065-0.266,0.083-0.346c0-0.135-0.033-0.258-0.1-0.381
				C386.799,772.602,386.705,772.508,386.583,772.438z"/>
		</g>
		<g>
			<path style="fill:#64347C;" d="M417.873,769.721c-0.578,0-1.033,0.074-1.365,0.225c-0.332,0.146-0.568,0.381-0.707,0.705
				c-0.139,0.323-0.207,0.76-0.207,1.307v0.527h-0.418c-0.586,0-0.881,0.21-0.881,0.629c0,0.189,0.07,0.344,0.213,0.459
				c0.141,0.119,0.342,0.178,0.604,0.178h0.482v4.644c0,0.346,0.08,0.609,0.248,0.795c0.164,0.18,0.371,0.271,0.617,0.271
				c0.262,0,0.475-0.092,0.639-0.271c0.164-0.186,0.25-0.449,0.25-0.795v-4.644h0.43c0.313,0,0.557-0.039,0.734-0.115
				c0.178-0.076,0.268-0.26,0.268-0.547c0-0.401-0.334-0.604-1.002-0.604h-0.43v-0.418c0-0.346,0.045-0.611,0.133-0.799
				c0.09-0.188,0.295-0.279,0.611-0.279c0.117,0,0.256,0.012,0.424,0.037c0.166,0.025,0.283,0.04,0.352,0.04
				c0.148,0,0.275-0.058,0.381-0.173c0.108-0.115,0.16-0.254,0.16-0.419C419.408,769.973,418.896,769.721,417.873,769.721z"/>
			<path style="fill:#64347C;" d="M423.982,772.607c-0.348-0.186-0.705-0.277-1.072-0.277c-0.369,0-0.662,0.092-0.883,0.277
				c-0.221,0.182-0.435,0.455-0.646,0.814c-0.016-0.359-0.084-0.633-0.211-0.814c-0.129-0.186-0.338-0.277-0.631-0.277
				c-0.568,0-0.854,0.395-0.854,1.182v4.883c0,0.352,0.08,0.615,0.244,0.796c0.162,0.181,0.369,0.27,0.621,0.27
				c0.258,0,0.469-0.09,0.637-0.267c0.168-0.179,0.252-0.444,0.252-0.8v-1.467c0-0.523,0.014-0.973,0.051-1.336
				c0.033-0.367,0.096-0.685,0.186-0.947c0.09-0.266,0.217-0.467,0.379-0.601c0.162-0.137,0.371-0.203,0.629-0.203
				c0.189,0,0.406,0.039,0.652,0.117c0.246,0.08,0.402,0.119,0.467,0.119c0.172,0,0.328-0.068,0.477-0.207
				c0.148-0.14,0.223-0.316,0.223-0.529C424.502,773.035,424.328,772.789,423.982,772.607z"/>
			<path style="fill:#64347C;" d="M431.094,776.132c0.252-0.133,0.377-0.419,0.377-0.858c0-0.477-0.123-0.945-0.365-1.402
				c-0.244-0.457-0.611-0.831-1.103-1.121c-0.49-0.289-1.078-0.434-1.762-0.434c-0.527,0-1.004,0.086-1.439,0.254
				c-0.432,0.17-0.795,0.414-1.092,0.729c-0.295,0.318-0.52,0.699-0.676,1.143c-0.152,0.441-0.23,0.924-0.23,1.441
				c0,1.102,0.314,1.972,0.939,2.613c0.623,0.643,1.5,0.965,2.625,0.965c0.492,0,0.93-0.064,1.309-0.193s0.695-0.291,0.945-0.486
				c0.248-0.193,0.435-0.398,0.56-0.607c0.125-0.215,0.186-0.398,0.186-0.557c0-0.18-0.055-0.32-0.166-0.42
				c-0.111-0.096-0.258-0.147-0.436-0.147c-0.166,0-0.297,0.039-0.387,0.117c-0.217,0.207-0.395,0.367-0.533,0.486
				c-0.135,0.121-0.285,0.231-0.449,0.338c-0.164,0.104-0.33,0.184-0.504,0.232c-0.172,0.049-0.367,0.072-0.574,0.072
				c-0.313,0-0.598-0.076-0.859-0.231c-0.26-0.154-0.467-0.384-0.623-0.687c-0.154-0.303-0.236-0.654-0.24-1.055h3.43
				C430.484,776.324,430.838,776.26,431.094,776.132z M426.596,775.33c0.061-0.592,0.23-1.037,0.512-1.338
				c0.279-0.303,0.639-0.455,1.074-0.455c0.459,0,0.828,0.149,1.108,0.447c0.283,0.297,0.441,0.748,0.484,1.346H426.596z"/>
			<path style="fill:#64347C;" d="M438.908,776.132c0.254-0.133,0.379-0.419,0.379-0.858c0-0.477-0.121-0.945-0.365-1.402
				c-0.244-0.457-0.611-0.831-1.1-1.121c-0.492-0.289-1.08-0.434-1.766-0.434c-0.525,0-1.006,0.086-1.438,0.254
				c-0.434,0.17-0.797,0.414-1.094,0.729c-0.295,0.318-0.52,0.699-0.676,1.143c-0.152,0.441-0.227,0.924-0.227,1.441
				c0,1.102,0.311,1.972,0.934,2.613c0.627,0.643,1.504,0.965,2.629,0.965c0.492,0,0.928-0.064,1.307-0.193s0.695-0.291,0.945-0.486
				c0.25-0.193,0.438-0.398,0.563-0.607c0.123-0.215,0.185-0.398,0.185-0.557c0-0.18-0.057-0.32-0.168-0.42
				c-0.111-0.096-0.256-0.147-0.436-0.147c-0.17,0-0.295,0.039-0.385,0.117c-0.219,0.207-0.397,0.367-0.535,0.486
				c-0.135,0.121-0.285,0.231-0.449,0.338c-0.164,0.104-0.33,0.184-0.504,0.232c-0.174,0.049-0.367,0.072-0.574,0.072
				c-0.313,0-0.598-0.076-0.858-0.231c-0.26-0.154-0.469-0.384-0.623-0.687c-0.156-0.303-0.238-0.654-0.24-1.055h3.43
				C438.303,776.324,438.658,776.26,438.908,776.132z M434.414,775.33c0.059-0.592,0.23-1.037,0.508-1.338
				c0.283-0.303,0.641-0.455,1.078-0.455c0.457,0,0.826,0.149,1.107,0.447c0.279,0.297,0.441,0.748,0.486,1.346H434.414z"/>
			<path style="fill:#64347C;" d="M445.935,772.76c-0.453-0.277-0.949-0.416-1.49-0.416c-0.447,0-0.852,0.095-1.209,0.285
				c-0.352,0.19-0.693,0.488-1.025,0.894v-0.209c0-0.318-0.078-0.562-0.234-0.731c-0.156-0.172-0.359-0.254-0.608-0.254
				c-0.252,0-0.451,0.082-0.598,0.248c-0.143,0.164-0.217,0.412-0.217,0.746v7.568c0,0.381,0.053,0.672,0.16,0.869
				c0.108,0.201,0.324,0.3,0.654,0.3c0.561,0,0.842-0.386,0.842-1.155v-2.633c0.307,0.389,0.633,0.684,0.973,0.883
				c0.342,0.203,0.762,0.305,1.262,0.305c0.416,0,0.807-0.082,1.166-0.248c0.363-0.164,0.676-0.4,0.941-0.707
				c0.266-0.305,0.475-0.686,0.625-1.137c0.152-0.453,0.229-0.947,0.229-1.486c0-0.734-0.131-1.367-0.393-1.901
				C446.748,773.445,446.391,773.04,445.935,772.76z M445.422,777.09c-0.152,0.338-0.348,0.592-0.598,0.76
				c-0.246,0.172-0.518,0.256-0.809,0.256c-0.488,0-0.897-0.194-1.227-0.582c-0.33-0.389-0.494-0.93-0.494-1.627
				c0-0.742,0.166-1.303,0.498-1.684c0.332-0.383,0.74-0.572,1.223-0.572c0.305,0,0.58,0.089,0.832,0.266
				c0.25,0.178,0.447,0.433,0.586,0.766c0.143,0.332,0.213,0.729,0.213,1.191C445.646,776.345,445.572,776.753,445.422,777.09z"/>
			<path style="fill:#64347C;" d="M449.68,772.33c-0.256,0-0.463,0.088-0.625,0.264c-0.162,0.174-0.24,0.435-0.24,0.785v5.016
				c0,0.342,0.078,0.605,0.24,0.789c0.162,0.184,0.369,0.277,0.625,0.277c0.258,0,0.469-0.09,0.637-0.27
				c0.168-0.181,0.25-0.444,0.25-0.796v-5.07c0-0.311-0.082-0.557-0.25-0.73C450.148,772.418,449.938,772.33,449.68,772.33z"/>
			<path style="fill:#64347C;" d="M449.701,769.801c-0.236,0-0.445,0.078-0.621,0.239c-0.178,0.161-0.266,0.366-0.266,0.614
				c0,0.273,0.088,0.486,0.26,0.635c0.172,0.15,0.381,0.225,0.627,0.225c0.236,0,0.438-0.075,0.611-0.227
				c0.168-0.152,0.254-0.365,0.254-0.633c0-0.279-0.086-0.492-0.264-0.637C450.127,769.873,449.928,769.801,449.701,769.801z"/>
			<path style="fill:#64347C;" d="M458.166,777.771l-1.797-2.826l0.93-0.854c0.475-0.43,0.715-0.771,0.715-1.029
				c0-0.209-0.074-0.385-0.221-0.523c-0.147-0.139-0.326-0.209-0.545-0.209c-0.185,0-0.342,0.049-0.471,0.141
				c-0.127,0.096-0.313,0.269-0.559,0.528l-1.971,2.067v-4.251c0-0.36-0.08-0.634-0.236-0.817c-0.158-0.183-0.373-0.277-0.643-0.277
				c-0.279,0-0.494,0.104-0.645,0.307c-0.15,0.204-0.223,0.502-0.223,0.889v7.478c0,0.352,0.076,0.615,0.23,0.796
				c0.154,0.181,0.365,0.27,0.637,0.27c0.23,0,0.434-0.092,0.613-0.271c0.178-0.186,0.266-0.443,0.266-0.783v-1.395l0.951-0.898
				l1.547,2.543c0.197,0.305,0.353,0.516,0.469,0.631c0.115,0.117,0.281,0.174,0.496,0.174c0.246,0,0.447-0.08,0.6-0.24
				c0.15-0.162,0.229-0.379,0.229-0.659c0-0.099-0.029-0.204-0.088-0.313C458.395,778.141,458.299,777.981,458.166,777.771z"/>
			<path style="fill:#64347C;" d="M461.064,777.527c-0.27,0-0.498,0.094-0.684,0.281c-0.182,0.189-0.275,0.412-0.275,0.674
				c0,0.309,0.098,0.549,0.291,0.721c0.191,0.172,0.42,0.258,0.686,0.258c0.258,0,0.478-0.086,0.672-0.262
				c0.19-0.172,0.285-0.41,0.285-0.717c0-0.266-0.096-0.49-0.285-0.676C461.56,777.619,461.332,777.527,461.064,777.527z"/>
			<path style="fill:#64347C;" d="M469.58,776.525c-0.18,0-0.33,0.055-0.455,0.168c-0.125,0.107-0.238,0.264-0.348,0.461
				c-0.193,0.334-0.414,0.582-0.664,0.744c-0.252,0.164-0.553,0.244-0.902,0.244c-0.262,0-0.504-0.051-0.721-0.15
				c-0.219-0.1-0.406-0.248-0.559-0.443c-0.152-0.194-0.271-0.43-0.355-0.705c-0.08-0.277-0.119-0.58-0.119-0.91
				c0-0.701,0.16-1.256,0.475-1.66c0.316-0.404,0.734-0.607,1.252-0.607c0.359,0,0.656,0.082,0.891,0.244
				c0.234,0.162,0.459,0.409,0.672,0.734c0.119,0.168,0.228,0.287,0.322,0.359c0.096,0.076,0.219,0.113,0.365,0.113
				c0.223,0,0.412-0.07,0.566-0.217c0.156-0.144,0.234-0.324,0.234-0.533c0-0.205-0.068-0.426-0.207-0.666
				c-0.139-0.236-0.342-0.461-0.603-0.672c-0.264-0.21-0.586-0.381-0.965-0.514c-0.379-0.131-0.795-0.199-1.248-0.199
				c-0.732,0-1.363,0.152-1.887,0.455c-0.529,0.299-0.934,0.728-1.211,1.279c-0.279,0.555-0.416,1.189-0.416,1.908
				c0,1.063,0.305,1.91,0.912,2.54c0.607,0.633,1.455,0.948,2.535,0.948c0.512,0,0.969-0.068,1.377-0.205
				c0.404-0.137,0.744-0.318,1.012-0.545c0.266-0.224,0.465-0.459,0.596-0.709c0.131-0.248,0.197-0.48,0.197-0.699
				c0-0.184-0.072-0.358-0.215-0.522C469.975,776.606,469.795,776.525,469.58,776.525z"/>
			<path style="fill:#64347C;" d="M477.473,773.32c-0.307-0.316-0.678-0.563-1.109-0.732c-0.434-0.172-0.914-0.258-1.447-0.258
				c-0.521,0-0.996,0.082-1.432,0.254c-0.432,0.169-0.801,0.41-1.103,0.723c-0.305,0.313-0.539,0.688-0.699,1.131
				c-0.164,0.441-0.244,0.928-0.244,1.459c0,0.525,0.08,1.007,0.24,1.441c0.16,0.435,0.397,0.81,0.707,1.131
				c0.309,0.32,0.678,0.563,1.1,0.734c0.426,0.172,0.902,0.258,1.432,0.258c0.537,0,1.018-0.086,1.447-0.254
				c0.43-0.171,0.797-0.414,1.104-0.73c0.309-0.315,0.547-0.695,0.707-1.137c0.164-0.441,0.244-0.924,0.244-1.443
				c0-0.527-0.08-1.011-0.24-1.445C478.016,774.014,477.783,773.637,477.473,773.32z M476.185,777.555
				c-0.314,0.4-0.736,0.602-1.27,0.602c-0.35,0-0.654-0.091-0.914-0.273c-0.26-0.182-0.457-0.443-0.598-0.787
				c-0.139-0.342-0.209-0.741-0.209-1.199c0-0.465,0.07-0.869,0.213-1.217c0.141-0.346,0.344-0.607,0.603-0.785
				c0.262-0.178,0.565-0.267,0.904-0.267c0.533,0,0.955,0.2,1.27,0.599c0.315,0.397,0.473,0.955,0.473,1.67
				C476.658,776.602,476.5,777.156,476.185,777.555z"/>
			<path style="fill:#64347C;" d="M488.734,772.625c-0.348-0.187-0.76-0.281-1.24-0.281c-0.41,0-0.787,0.086-1.125,0.262
				c-0.338,0.172-0.654,0.438-0.949,0.798c-0.205-0.356-0.467-0.622-0.785-0.796c-0.315-0.178-0.693-0.264-1.137-0.264
				c-0.422,0-0.807,0.086-1.154,0.256c-0.35,0.172-0.672,0.44-0.975,0.804v-0.167c0-0.283-0.082-0.504-0.244-0.666
				c-0.16-0.159-0.359-0.24-0.602-0.24c-0.246,0-0.447,0.086-0.6,0.258c-0.152,0.17-0.227,0.422-0.227,0.752v5.016
				c0,0.365,0.084,0.641,0.252,0.824c0.172,0.188,0.389,0.281,0.652,0.281c0.27,0,0.486-0.094,0.652-0.281
				c0.164-0.184,0.248-0.459,0.248-0.824v-2.371c0-0.735,0.09-1.301,0.273-1.695c0.182-0.393,0.559-0.592,1.133-0.592
				c0.287,0,0.498,0.08,0.629,0.236c0.133,0.156,0.215,0.356,0.244,0.6c0.031,0.246,0.045,0.586,0.045,1.027v2.795
				c0,0.369,0.084,0.643,0.248,0.828c0.164,0.184,0.381,0.277,0.646,0.277c0.273,0,0.494-0.094,0.662-0.277
				c0.166-0.185,0.248-0.459,0.248-0.828v-2.332c0-0.75,0.066-1.27,0.191-1.568c0.119-0.228,0.281-0.414,0.486-0.551
				c0.209-0.137,0.43-0.207,0.66-0.207c0.285,0,0.502,0.078,0.641,0.232c0.141,0.154,0.227,0.344,0.262,0.57
				c0.031,0.229,0.047,0.529,0.047,0.906v2.949c0,0.365,0.084,0.641,0.254,0.824c0.17,0.188,0.389,0.281,0.652,0.281
				c0.275,0,0.494-0.094,0.662-0.277c0.166-0.185,0.25-0.459,0.25-0.828v-3.424c0-0.682-0.074-1.179-0.227-1.496
				C489.338,773.084,489.08,772.815,488.734,772.625z"/>
		</g>
		<g>
			<path style="fill:#64347C;" d="M401.246,767.474c0.59-0.054,0.986-0.759,0.697-1.283c-0.262-0.591-1.169-0.665-1.521-0.124
				c-0.376,0.48-0.082,1.234,0.492,1.389c0.035,0.121,0.07,0.242,0.103,0.364c-0.88,0.056-1.781,0.253-2.52,0.757
				c0.076,0.215,0.151,0.432,0.227,0.645c1.494-0.654,3.171-0.512,4.747-0.356c0.053-0.209,0.105-0.416,0.156-0.623
				c-0.711-0.32-1.494-0.438-2.268-0.434C401.32,767.697,401.283,767.586,401.246,767.474z"/>
			<path style="fill:#64347C;" d="M410.246,770.221c-0.236,0.123-0.281,0.403-0.268,0.644c-0.264,0.256-0.139,0.639-0.168,0.963
				c-0.058,0.18-0.273,0.199-0.422,0.268c-0.209-0.314-0.428-0.617-0.703-0.875v-0.016c-0.301-0.283-0.627-0.535-0.971-0.76
				c-0.277,0.295-0.566,0.584-0.834,0.893c0.527,0.58,1.014,1.198,1.443,1.854c0.297,0.499,0.537,1.029,0.742,1.569
				c0.445-0.225,0.885-0.464,1.326-0.698c-0.232-0.543-0.502-1.072-0.785-1.59c0.195-0.108,0.461-0.211,0.49-0.465
				c0.023-0.283-0.041-0.592,0.131-0.842c0.342,0.225,0.865-0.029,0.869-0.445C411.143,770.289,410.602,769.977,410.246,770.221z"/>
			<path style="fill:#64347C;" d="M405.787,770.791c-0.986-0.867-2.264-1.45-3.59-1.443c-1.675-0.023-3.371,0.252-4.913,0.924
				c-1.455,0.639-2.719,1.775-3.359,3.248c-0.617,1.324-0.61,2.848-0.331,4.256c1.542,0.387,3.108,0.729,4.699,0.803
				c1.569,0.049,3.146,0.086,4.705-0.133c2.141-0.281,4.238-0.961,6.105-2.053c0,0-0.256-1.41-1.262-2.947
				C407.264,772.486,406.637,771.531,405.787,770.791z M400.266,775.341c-0.289,0.423-0.706,0.751-1.185,0.935
				c-0.901,0.336-1.998,0.107-2.646-0.613c-0.454-0.496-0.722-1.166-0.674-1.844c0.035-0.845,0.558-1.632,1.299-2.027
				c0.566-0.309,1.248-0.361,1.862-0.189c0.26,0.064,0.499,0.185,0.72,0.336c0.454,0.322,0.797,0.799,0.95,1.338
				C400.805,773.966,400.67,774.742,400.266,775.341z M406.76,773.818c-0.105,0.721-0.797,1.336-1.535,1.287
				c-0.426,0.035-0.838-0.166-1.129-0.469c-0.207-0.258-0.379-0.559-0.408-0.895c-0.098-0.734,0.416-1.49,1.135-1.668
				c0.316-0.088,0.646-0.039,0.959,0.033C406.457,772.349,406.9,773.111,406.76,773.818z"/>
			<path style="fill:#64347C;" d="M392.374,772.799c-0.127-0.232-0.165-0.51-0.327-0.719c-0.094-0.125-0.26-0.072-0.391-0.076
				c-0.165,0.019-0.329-0.025-0.484-0.074c0.183-0.26,0.135-0.654-0.147-0.822c-0.298-0.215-0.764-0.027-0.842,0.33
				c-0.126,0.391,0.29,0.783,0.673,0.68c0.204,0.299,0.571,0.252,0.884,0.264c0.142,0.244,0.249,0.512,0.43,0.732
				c-0.336,0.665-0.524,1.404-0.54,2.147c0.431,0.181,0.86,0.363,1.294,0.544c0.022-0.469,0.076-0.934,0.146-1.396
				c0.146-1.005,0.727-1.879,1.416-2.6c-0.17-0.181-0.361-0.339-0.541-0.51C393.317,771.678,392.803,772.211,392.374,772.799z"/>
			<path style="fill:#64347C;" d="M399.17,779.264c-1.099-0.057-2.196-0.158-3.268-0.396c-0.761-0.154-1.506-0.375-2.254-0.588
				c0.12,0.957,0.507,1.871,1.058,2.658c0.651,0.914,1.522,1.756,2.605,2.094c0.843,0.225,1.855,0.518,3.59,0.488
				c1.435-0.027,2.845-0.209,4.109-0.744c0.81-0.35,1.572-0.826,2.227-1.421c0.566-0.535,1.008-1.198,1.314-1.913
				c0.297-0.674,0.563-1.887,0.533-2.508c-1.553,0.886-3.293,1.654-5.063,1.953C402.432,779.232,400.793,779.334,399.17,779.264z"/>
		</g>
	</g>
</g>
<g id="object">
	<g>
		<g>
			
				<linearGradient id="SVGID_1_" gradientUnits="userSpaceOnUse" x1="474.5784" y1="537.9163" x2="49.0588" y2="539.3727" gradientTransform="matrix(0.9992 0.0396 -0.0396 0.9992 19.9023 -15.7951)">
				<stop  offset="0" style="stop-color:#332920;stop-opacity:0.4"/>
				<stop  offset="0.4769" style="stop-color:#5B524B;stop-opacity:0.2569"/>
				<stop  offset="1" style="stop-color:#837C77;stop-opacity:0.1"/>
			</linearGradient>
			<polygon style="fill:url(#SVGID_1_);" points="640.682,546.133 238.17,609.496 106.331,513.85 539.932,465.408 			"/>
			<g>
				<g>
					<polygon style="fill:#280F3A;" points="159.057,517.807 178.42,515.82 237.902,568.736 233.411,579.82 					"/>
					<path style="fill:#B27449;" d="M170.268,451.648c0,0,16.182,41.479,3.093,69.156l63.105,51.439c0,0,14.796-29.879-2.918-69.473
						L170.268,451.648z"/>
					
						<linearGradient id="SVGID_00000136377943527681156320000013459505785717861789_" gradientUnits="userSpaceOnUse" x1="438.9941" y1="488.8146" x2="447.738" y2="560.7092" gradientTransform="matrix(0.9992 0.0396 -0.0396 0.9992 19.9023 -15.7951)">
						<stop  offset="0" style="stop-color:#82479F"/>
						<stop  offset="0.102" style="stop-color:#64337B"/>
						<stop  offset="0.2869" style="stop-color:#562C6B"/>
						<stop  offset="0.4592" style="stop-color:#4E2761"/>
						<stop  offset="0.6671" style="stop-color:#502863"/>
						<stop  offset="0.7784" style="stop-color:#572C6B"/>
						<stop  offset="0.8667" style="stop-color:#623279"/>
						<stop  offset="0.8776" style="stop-color:#64337B"/>
						<stop  offset="1" style="stop-color:#82479F"/>
					</linearGradient>
					<path style="fill:url(#SVGID_00000136377943527681156320000013459505785717861789_);" d="M237.138,498.053l401.69-27.834
						c0,0,30.881,30.391,1.854,75.914l-406.151,42.24C234.53,588.373,261.117,555.394,237.138,498.053z"/>
					<polygon style="fill:#64347C;" points="237.604,498.557 638.789,471.19 546.434,421.83 165.513,440.766 					"/>
					<path style="fill:#45205B;" d="M165.513,440.766l72.091,57.791c0,0,24.715,51.053-3.074,89.816l-75.51-63.519l0.037-7.047
						l74.354,62.014c0,0,17.228-36.021,0.137-77.049l-67.614-54.213L165.513,440.766z"/>
					<path style="fill:#8E5F3F;" d="M170.268,451.648l63.28,51.123c0,0,6.511,19.703,7.135,28.478
						c-2.444-3.68-29.929-53.69-63.868-56.008L170.268,451.648z"/>
					<polygon style="opacity:0.2;fill:#753B30;" points="175.248,514.074 176.335,511.199 240.034,559.908 238.948,562.781 					"/>
					<polygon style="opacity:0.4;fill:#753B30;" points="177.982,506.402 240.846,551.676 240.534,547.289 177.593,503.957 					"/>
					<polygon style="opacity:0.2;fill:#753B30;" points="178.386,496.211 240.861,539.035 240.996,535.637 178.463,494.27 					"/>
					<polygon style="opacity:0.2;fill:#753B30;" points="176.815,475.242 239.593,521.971 237.805,518.012 174.495,471.748 					"/>
				</g>
				<g>
					<g>
						<path style="fill:#EA892C;" d="M201.302,371.855c0,0-15.648,35.029,0.62,66.139l295.525,66.809
							c0,0-11.703-31.576-5.947-78.664L201.302,371.855z"/>
						<polygon style="fill:#EA892C;" points="501.301,493.451 580.242,439.699 561.313,438.949 496.346,483.531 						"/>
						<path style="fill:#F7B719;" d="M559.262,382.955l0.121-3.018L305.384,346.16l-104.082,25.695
							c0,0,288.893,54.23,290.161,54.928c1.139,0.625,68.373-35.74,82.242-43.256L559.262,382.955z"/>
						
							<linearGradient id="SVGID_00000082326452334484485770000011215767850116212879_" gradientUnits="userSpaceOnUse" x1="494.757" y1="436.5087" x2="565.4045" y2="436.5087" gradientTransform="matrix(0.9992 0.0396 -0.0396 0.9992 19.9023 -15.7951)">
							<stop  offset="0" style="stop-color:#C18553"/>
							<stop  offset="0.1492" style="stop-color:#C98D5A"/>
							<stop  offset="0.6797" style="stop-color:#E3A36E"/>
							<stop  offset="1" style="stop-color:#ECAC76"/>
						</linearGradient>
						<path style="fill:url(#SVGID_00000082326452334484485770000011215767850116212879_);" d="M569.486,394.369l-71.141,38.682
							c0,0-5.563,29.922,2.176,55.508l66.518-46.951L569.486,394.369z"/>
						<path style="fill:#FFD712;" d="M501.301,493.451c0,0-6.785-34-2.955-60.4l78.014-42.607l-0.129-6.816l-2.594-0.104
							l-82.174,43.26c0,0-8.465,50.063,5.984,78.02l83.029-58.773l-0.234-6.33L501.301,493.451z"/>
					</g>
					<path style="fill:#DD721B;" d="M232.009,392.01l-29.355-5.193c0,0-4.807,23.145,1.297,40.887l25.6,5.604
						C229.71,419.563,230.517,405.793,232.009,392.01z"/>
					<path style="fill:#DD721B;" d="M435.533,428.023c-2.947,16.27-3.764,32.891-3.508,49.6l42.576,10.631
						c0,0-2.361-34.361,4.193-52.576L435.533,428.023z"/>
					<path style="fill:#DD721B;" d="M404.589,422.547L261.98,397.313c-1.762,14.063-2.492,28.293-2.422,42.563l138.915,30.404
						C399.722,454.283,401.642,438.353,404.589,422.547z"/>
					<path style="fill:#DD721B;" d="M427.848,426.664l-15.619-2.764c-2.984,15.902-4.898,31.939-6.114,48.051l18.169,3.977
						C424.084,459.338,424.939,442.836,427.848,426.664z"/>
					<path style="fill:#DD721B;" d="M254.301,395.955l-14.615-2.588c-1.47,13.908-2.233,27.789-2.342,41.647l14.443,3.16
						C251.778,424.018,252.542,409.906,254.301,395.955z"/>
				</g>
				<path style="opacity:0.3;fill:#8E5729;" d="M569.391,394.545l-71.045,38.506c0,0-2.535,25.219,0.572,41.586
					C498.918,474.637,505.977,436.756,569.391,394.545z"/>
				<polygon style="opacity:0.5;fill:#280F3A;" points="201.922,437.994 379.371,491.049 497.422,505.451 				"/>
				<polygon style="fill:#DD721B;" points="236.622,363.853 213.882,373.103 484.492,405.18 499.74,390.772 				"/>
				<g>
					<g>
						
							<linearGradient id="SVGID_00000029010850644342045000000013814305992475545753_" gradientUnits="userSpaceOnUse" x1="359.3652" y1="282.5601" x2="351.1189" y2="382.388" gradientTransform="matrix(0.9992 0.0396 -0.0396 0.9992 19.9023 -15.7951)">
							<stop  offset="0.0153" style="stop-color:#DF2000"/>
							<stop  offset="0.1531" style="stop-color:#B61306"/>
							<stop  offset="0.4388" style="stop-color:#990A0A"/>
							<stop  offset="0.8163" style="stop-color:#AD1007"/>
							<stop  offset="1" style="stop-color:#D01B02"/>
						</linearGradient>
						<path style="fill:url(#SVGID_00000029010850644342045000000013814305992475545753_);" d="M250.216,266.191
							c-0.078-0.029-14.707-5.072-15.423,13c-0.718,18.121,0.029,81.025,0.029,81.025s1.505,11.078,14.424,12.24
							c12.918,1.16,236.577,32.775,236.577,32.775c-9.473-5.047-8.809-55.508-8.992-86.924c-0.027-4.93-0.103-9.859-0.105-14.789
							c0-4.43-0.605-12.916,1.15-16.914c0.967-2.188,2.727-3.441,4.238-5.088c-9.752-1.072-19.547-1.658-29.338-2.268
							c-18.947-1.182-37.895-2.371-56.839-3.621c-21.532-1.422-43.068-2.811-64.605-4.188c-18.364-1.176-36.725-2.381-55.087-3.572
							c-8.342-0.541-16.685-1.063-25.027-1.613C250.92,266.238,250.496,266.287,250.216,266.191z"/>
						<polygon style="fill:#9B1E0E;" points="244.828,266.492 482.113,281.518 564.768,272.461 356.085,256.775 						"/>
						<polygon style="fill:#9B1E0E;" points="560.07,362.563 545.906,361.527 544.256,366.324 476.518,395.039 489.563,404.781 
							560.06,362.82 						"/>
						
							<linearGradient id="SVGID_00000014626738753549634910000001795620912037773492_" gradientUnits="userSpaceOnUse" x1="463.7253" y1="345.0818" x2="542.5941" y2="309.0553" gradientTransform="matrix(0.9992 0.0396 -0.0396 0.9992 19.9023 -15.7951)">
							<stop  offset="0" style="stop-color:#C18553"/>
							<stop  offset="0.1492" style="stop-color:#C98D5A"/>
							<stop  offset="0.6797" style="stop-color:#E3A36E"/>
							<stop  offset="1" style="stop-color:#ECAC76"/>
						</linearGradient>
						<path style="fill:url(#SVGID_00000014626738753549634910000001795620912037773492_);" d="M557.096,275.435
							c0,0-14.086,73.336-9.887,90.031l-66.418,34.143l-1.91-101.022c0,0-2.373-13.707,9.352-15.186
							C499.959,281.922,557.096,275.435,557.096,275.435z"/>
						<polygon style="opacity:0.2;fill:#753B30;" points="476.072,299.934 554.613,287.977 554.037,290.676 475.963,302.685 						
							"/>
						<polygon style="opacity:0.2;fill:#753B30;" points="475.641,306.725 553.635,294.537 553.031,297.141 475.533,309.475 						
							"/>
						<polygon style="opacity:0.3;fill:#753B30;" points="479.846,319.207 551.309,306.969 550.797,309.31 479.736,321.957 						
							"/>
						<polygon style="opacity:0.3;fill:#753B30;" points="479.615,325.029 550.684,312.184 550.31,315.297 479.506,327.781 						
							"/>
						<polygon style="opacity:0.2;fill:#753B30;" points="478.748,330.506 549.82,318.154 549.443,321.393 478.602,334.228 						
							"/>
						<polygon style="opacity:0.2;fill:#753B30;" points="475.803,352.353 547.764,335.336 547.41,337.949 475.863,355.107 						
							"/>
						<polygon style="opacity:0.3;fill:#753B30;" points="475.988,360.772 546.912,344.185 546.574,346.424 476.049,363.525 						
							"/>
						<polygon style="opacity:0.2;fill:#753B30;" points="477.955,380.26 546.377,354.547 546.44,356.82 478.373,382.982 						"/>
						<polygon style="opacity:0.2;fill:#753B30;" points="475.896,356.565 547.352,339.449 546.998,342.06 475.957,359.316 						
							"/>
						<path style="opacity:0.3;fill:#8E5729;" d="M480.742,398.809l1.103-113.715l75.25-9.658l-2.488,13.512
							C554.607,288.947,498.744,300.348,480.742,398.809z"/>
						<path style="fill:#FF4B33;" d="M560.06,362.791l-65.395,33.949c0,0-6.832,4.066-9.91,1.775
							c-3.111-2.314-2.225-11.262-2.225-11.262l-0.35-86.105c0,0-1.645-15.053,7.916-15.729c11.721-0.828,74.687-7.734,74.687-7.734
							l0.211-5.34c0,0-77.781,6.275-82.883,9.172c0,0-6.967,0.879-6.727,19.361c0.186,14.424,0.416,68.344,0.934,93.971
							c0.082,4.004,2.193,7.385,4.727,8.857c2.772,1.611,6.906,1.941,8.959,1.014c21.088-9.51,61.859-32.037,69.84-36.471
							L560.06,362.791z"/>
					</g>
					<polygon style="opacity:0.5;fill:#6D0505;" points="258.299,283.041 255.336,357.789 277.587,360.615 280.588,284.897 					"/>
					<polygon style="opacity:0.5;fill:#6D0505;" points="427.916,296.568 424.279,388.35 446.51,391.617 450.195,298.645 					"/>
					<polygon style="opacity:0.5;fill:#6D0505;" points="294.141,286.404 291.101,363.098 409.891,383.359 413.277,297.934 					"/>
				</g>
				<path style="opacity:0.3;fill:#8E5729;" d="M514.305,324.785l12.162,24.303C526.467,349.088,529.934,322.975,514.305,324.785"/>
				
					<linearGradient id="SVGID_00000064348959179549996470000012678625431395893659_" gradientUnits="userSpaceOnUse" x1="530.4549" y1="342.7536" x2="520.4056" y2="318.6354" gradientTransform="matrix(0.9992 0.0396 -0.0396 0.9992 19.9023 -15.7951)">
					<stop  offset="0.0153" style="stop-color:#DF2000"/>
					<stop  offset="0.6071" style="stop-color:#B61306"/>
					<stop  offset="1" style="stop-color:#990A0A"/>
				</linearGradient>
				<path style="fill:url(#SVGID_00000064348959179549996470000012678625431395893659_);" d="M514.297,324.379l20.586-3.641
					c0,0,14.482,7.766,8.004,24.037l-16.42,4.313C526.467,349.088,528.896,323.984,514.297,324.379z"/>
			</g>
		</g>
		<g>
			<path style="opacity:0.3;fill:#280F3A;" d="M331.331,271.441c0,0,4.446,39.357-17.692,41.061c-26,2-35-27-32-43L331.331,271.441z
				"/>
			
				<linearGradient id="SVGID_00000169528463014905489250000007711955983559503021_" gradientUnits="userSpaceOnUse" x1="409.1389" y1="148.5023" x2="409.1389" y2="234.5542">
				<stop  offset="0" style="stop-color:#5C5C5C"/>
				<stop  offset="0.2821" style="stop-color:#3E3E3E"/>
				<stop  offset="1" style="stop-color:#000000"/>
			</linearGradient>
			<polygon style="fill:url(#SVGID_00000169528463014905489250000007711955983559503021_);" points="198.639,204.502 
				403.628,227.963 619.639,207.502 402.64,141.502 			"/>
			<path d="M296.639,264.502c0,0,102,18,214.999,8c0,0,24.783-57.09,11-67c-37.414-26.9-134.91-47.9-233.999-9
				C272.706,202.757,296.639,264.502,296.639,264.502z"/>
			<polygon style="fill:#ADADAD;" points="198.639,204.502 402.64,141.502 619.639,207.502 619.639,201.502 402.64,134.502 
				197.639,199.502 			"/>
			<g>
				
					<linearGradient id="SVGID_00000109727264122820156780000013283441721046574271_" gradientUnits="userSpaceOnUse" x1="318.126" y1="275.6059" x2="287.1259" y2="276.6059">
					<stop  offset="0" style="stop-color:#F7B719"/>
					<stop  offset="1" style="stop-color:#DD721B"/>
				</linearGradient>
				<path style="fill:url(#SVGID_00000109727264122820156780000013283441721046574271_);" d="M313.294,249.961
					c12.992-0.59,19.015,17.16,20.966,27.938c2.03,11.217,0.185,22.086-13.601,23.293c-12.715,1.113-23.997-0.109-24.897-15.137
					C295.002,273.318,298.204,250.643,313.294,249.961z"/>
				
					<linearGradient id="SVGID_00000015322917575231627640000014556289017124415629_" gradientUnits="userSpaceOnUse" x1="317.8832" y1="164.289" x2="317.8832" y2="252.5306">
					<stop  offset="0" style="stop-color:#F7B719"/>
					<stop  offset="1" style="stop-color:#DD721B"/>
				</linearGradient>
				<path style="fill:url(#SVGID_00000015322917575231627640000014556289017124415629_);" d="M325.973,157.502
					c0,0-14.478-0.811-8.739,93.095h-5.261C311.973,250.598,301.639,147.502,325.973,157.502z"/>
				<g style="opacity:0.7;">
					<path style="fill:#FFD712;" d="M320.379,295.111c0.035,0.678,0.065,1.355,0.087,2.037
						C320.464,296.555,320.431,295.865,320.379,295.111z"/>
					<path style="fill:#FFD712;" d="M318.721,277.803c0.374,6.27,1.361,12.98,1.658,17.309
						C320.078,289.295,319.334,283.58,318.721,277.803z"/>
					<path style="fill:#FFD712;" d="M317.766,253.502c-13.344-1.377-12.747,36.035-9.897,43.201v1.799
						c3.947-10.654,2.511-24.518,6.097-35.033c-1.646,10.746,1.375,22.748,0.157,33.813c5.143-10.078,0.33-24.389,3.693-35.428
						c-0.094,5.453,0.352,10.727,0.905,15.949c-0.409-6.854-0.083-13.17,2.695-15.23c3.544,9.52-1.938,21.596,5.15,30.211
						C330.037,285.914,326.938,254.447,317.766,253.502z"/>
				</g>
				
					<linearGradient id="SVGID_00000152242163196615758200000011755639406507802037_" gradientUnits="userSpaceOnUse" x1="314.1392" y1="233.5951" x2="314.1392" y2="252.4142">
					<stop  offset="0" style="stop-color:#F7B719"/>
					<stop  offset="1" style="stop-color:#DD721B"/>
				</linearGradient>
				<circle style="fill:url(#SVGID_00000152242163196615758200000011755639406507802037_);" cx="314.139" cy="242.002" r="10"/>
				<circle style="fill:#FFD712;" cx="316.139" cy="241.002" r="5.5"/>
			</g>
		</g>
	</g>
</g>
</svg>
